<?xml version="1.0" encoding="UTF-8"?>
<svg xmlns="http://www.w3.org/2000/svg" version="1.1" viewBox="0 0 320.28 453.05">
  <defs>
    <style>
      .cls-1 {
        fill: #fff;
      }
    </style>
  </defs>
  <!-- Generator: Adobe Illustrator 28.6.0, SVG Export Plug-In . SVG Version: 1.2.0 Build 709)  -->
  <g>
    <g id="Layer_1">
      <g id="Layer_1-2" data-name="Layer_1">
        <g id="Layer_1-2">
          <g id="Layer_1-2-2" data-name="Layer_1-2">
            <rect class="cls-1" width="320.28" height="453.05"/>
            <path d="M239.25,321.84c0-61.18-41.38-102.27-41.38-204.53,0-10.95,1.54-18.56,5.26-29.32.64-1.86,1.35-3.82,2.12-5.9,0-.02,0-.04.02-.07,0-.04.04-.1.05-.15h0c.27-.77.59-1.61.94-2.52,1.12-2.94,1.63-6.18,1.47-9.35-.45-8.7-7.4-15.26-16.18-15.26s-15.72,6.56-16.18,15.26c-.16,3.18.34,6.41,1.48,9.37.66,1.73,1.19,3.19,1.6,4.39.57,1.47,1.07,2.88,1.53,4.23,4.86,14.26,4.24,22.43,4.24,29.31h0c0,102.26,41.38,143.35,41.38,204.53v.6c0,37.87-30.82,68.69-68.69,68.69s-68.69-30.82-68.69-68.69v-.73c3.19,1.14,6.5,2.04,9.89,2.68-3.14-8.07-4.86-16.83-4.86-25.99,0-14.98,4.6-28.9,12.46-40.43-17.23,13.69-28.84,34.15-30.83,57.35-.21,2.35-.31,4.73-.31,7.12,0,45.46,36.85,82.32,82.31,82.32s82.32-36.86,82.32-82.32v-.6h.05ZM192.37,75.11c-.86,2.25-1.96,5.26-2.71,7.85h0c-.12.42-.23.81-.33,1.18,0,.03,0,.06-.02.08-.2.71-.4,1.42-.6,2.14-.38-2.76-2.21-7.88-3.51-11.25-.54-1.42-.78-2.97-.7-4.48.27-5.29,8.29-5.29,8.57,0,.08,1.51-.16,3.07-.7,4.48h0Z"/>
          </g>
        </g>
      </g>
    </g>
  </g>
</svg>