<?xml version="1.0" encoding="UTF-8"?>
<svg xmlns="http://www.w3.org/2000/svg" version="1.1" viewBox="0 0 160.14 223.57">
  <defs>
    <style>
      .cls-1 {
        fill: #fff;
      }
    </style>
  </defs>
  <!-- Generator: Adobe Illustrator 28.6.0, SVG Export Plug-In . SVG Version: 1.2.0 Build 709)  -->
  <g>
    <g id="Layer_1">
      <g id="Layer_1-2" data-name="Layer_1">
        <g id="Layer_1-2">
          <g id="Layer_1-2-2" data-name="Layer_1-2">
            <g id="Layer_1-2-2">
              <rect class="cls-1" width="160.14" height="226.52"/>
              <path d="M119.62,160.92c0-30.59-20.69-51.13-20.69-102.26,0-5.47.77-9.28,2.63-14.66.32-.93.68-1.91,1.06-2.95,0,0,0-.02,0-.03,0-.02.02-.05.03-.08h0c.14-.39.29-.81.47-1.26.56-1.47.82-3.09.74-4.68-.22-4.35-3.7-7.63-8.09-7.63s-7.86,3.28-8.09,7.63c-.08,1.59.17,3.2.74,4.68.33.86.6,1.59.8,2.19.29.74.54,1.44.76,2.11,2.43,7.13,2.12,11.22,2.12,14.65h0c0,51.13,20.69,71.68,20.69,102.26v.3c0,18.93-15.41,34.35-34.35,34.35s-34.35-15.41-34.35-34.35v-.37c1.6.57,3.25,1.02,4.94,1.34-1.57-4.04-2.43-8.41-2.43-12.99,0-7.49,2.3-14.45,6.23-20.21-8.62,6.85-14.42,17.07-15.42,28.68-.1,1.18-.16,2.37-.16,3.56,0,22.73,18.43,41.16,41.15,41.16s41.16-18.43,41.16-41.16v-.3h.03l.02.02ZM96.18,37.56c-.43,1.12-.98,2.63-1.36,3.92h0c-.06.21-.11.41-.17.59,0,0,0,.03,0,.04-.1.35-.2.71-.3,1.07-.19-1.38-1.11-3.94-1.75-5.62-.27-.71-.39-1.49-.35-2.24.14-2.65,4.14-2.65,4.29,0,.04.75-.08,1.53-.35,2.24h0Z"/>
            </g>
          </g>
        </g>
      </g>
    </g>
  </g>
</svg>