<?xml version="1.0" encoding="UTF-8"?>
<svg xmlns="http://www.w3.org/2000/svg" version="1.1" viewBox="0 0 160.1 223.6">
  <!-- Generator: Adobe Illustrator 28.7.1, SVG Export Plug-In . SVG Version: 1.2.0 Build 142)  -->
  <g>
    <g id="Layer_1">
      <g id="Layer_1-2" data-name="Layer_1">
        <g id="Layer_1-2">
          <g id="Layer_1-2-2" data-name="Layer_1-2">
            <g id="Layer_1-2-2">
              <g id="Layer_1-2-2-2" data-name="Layer_1-2-2">
                <path d="M119.6,160.9c0-30.6-20.7-51.1-20.7-102.3s.8-9.3,2.6-14.7c.3-.9.7-1.9,1.1-3h0s0,0,0-.1h0c.1-.4.3-.8.5-1.3.6-1.5.8-3.1.7-4.7-.2-4.4-3.7-7.6-8.1-7.6s-7.9,3.3-8.1,7.6c0,1.6.2,3.2.7,4.7.3.9.6,1.6.8,2.2.3.7.5,1.4.8,2.1,2.4,7.1,2.1,11.2,2.1,14.7h0c0,51.1,20.7,71.7,20.7,102.3v.3c0,18.9-15.4,34.4-34.3,34.4s-34.3-15.4-34.3-34.4v-.4c1.6.6,3.2,1,4.9,1.3-1.6-4-2.4-8.4-2.4-13,0-7.5,2.3-14.4,6.2-20.2-8.6,6.9-14.4,17.1-15.4,28.7,0,1.2-.2,2.4-.2,3.6,0,22.7,18.4,41.2,41.2,41.2s41.2-18.4,41.2-41.2v-.3h0s0,0,0,0ZM96.2,37.6c-.4,1.1-1,2.6-1.4,3.9h0c0,.2-.1.4-.2.6h0c0,.4-.2.8-.3,1.1-.2-1.4-1.1-3.9-1.8-5.6-.3-.7-.4-1.5-.3-2.2.1-2.7,4.1-2.7,4.3,0,0,.8,0,1.5-.3,2.2h0Z"/>
              </g>
            </g>
          </g>
        </g>
      </g>
    </g>
  </g>
</svg>